<svg id="SvgjsSvg1001" width="288" height="288" xmlns="http://www.w3.org/2000/svg" version="1.1" xmlns:xlink="http://www.w3.org/1999/xlink" xmlns:svgjs="http://svgjs.com/svgjs"><defs id="SvgjsDefs1002"></defs><g id="SvgjsG1008"><svg xmlns="http://www.w3.org/2000/svg" width="288" height="288" enable-background="new 0 0 32 32" viewBox="0 0 32 32"><g id="Layer_1" fill="#0c3e27" class="color000 svgShape"><path fill="none" stroke="#26c17e" stroke-linecap="round" stroke-linejoin="round" stroke-miterlimit="10" stroke-width="2" d="M31,16c0,4.65997-2.13,8.82996-5.46997,11.57996C22.94,29.71997,19.62,31,16,31    s-6.94-1.28003-9.53003-3.42004C3.13,24.82996,1,20.65997,1,16C1,7.71997,7.71997,1,16,1S31,7.71997,31,16z" class="colorStroke434345 svgStroke"></path><path fill="none" stroke="#26c17e" stroke-linecap="round" stroke-linejoin="round" stroke-miterlimit="10" stroke-width="2" d="M22.5,11.5c0,2.45263-1.36067,5.40799-3.38002,7.02865c-0.03465,0.02603-0.06929,0.052-0.10399,0.07802    c-0.90132,0.702-1.92397,1.12666-3.01598,1.12666s-2.11467-0.42466-3.01598-1.12666c-0.0347-0.02603-0.06935-0.052-0.104-0.07802    C10.86067,16.90799,9.5,13.95263,9.5,11.5C9.5,7.91199,12.41199,5,16,5S22.5,7.91199,22.5,11.5z" class="colorStroke434345 svgStroke"></path><path fill="none" stroke="#26c17e" stroke-linecap="round" stroke-linejoin="round" stroke-miterlimit="10" stroke-width="2" d="M25.53003,27.52997v0.04999C22.94,29.71997,19.62,31,16,31s-6.94-1.28003-9.53003-3.42004v-0.04999    c0-4.16998,2.67004-7.71997,6.41003-9c0.02997,0.02002,0.07001,0.04999,0.09998,0.08002    c0.91003,0.70001,1.92999,1.12,3.02002,1.12s2.10999-0.41998,3.02002-1.12c0.02997-0.03003,0.07001-0.06,0.09998-0.08002    C22.85999,19.81,25.53003,23.35999,25.53003,27.52997z" class="colorStroke434345 svgStroke"></path></g></svg></g></svg>